# xmcd CD database file
#
# Track frame offsets:
#	150
#	10720
#	21050
#	31312
#	47575
#	64177
#	74755
#	83947
#	94847
#	105607
#	115497
#	126295
#	136385
#	145830
#	167087
#	179192
#
# Disc length: 2509 seconds
#
# Revision: 3
# Processed by: cddbd v1.5.2PL0 Copyright (c) Steve Scherf et al.
# Submitted via: CDex 1.51
#
DISCID=e709cb10
DTITLE=The Everly Brothers - All I Have To Do Is Dream  [1958]
DYEAR=1900
DGENRE=Rock
TTITLE0=Bye Bye Love
TTITLE1=Be-Bop-A-Lula
TTITLE2=This Little Girl Of Mine
TTITLE3=I'm Here To Get My Baby Out Of Jail
TTITLE4=Roving Gambler
TTITLE5=All I Have To Do Is Dream
TTITLE6=Wake Up, Little Susy
TTITLE7=Take A Message To Mary
TTITLE8=(Till)  I Kissed You
TTITLE9=I Wonder If I Care As Much
TTITLE10=Devoted To You
TTITLE11=Bird Dog
TTITLE12=Love Of My Life
TTITLE13=Barbara Allen
TTITLE14=Let It Be Me
TTITLE15=When Will I Be Loved
EXTD=Koch Media Austria 032.797.331.532.1
EXTT0=
EXTT1=
EXTT2=
EXTT3=
EXTT4=
EXTT5=
EXTT6=
EXTT7=
EXTT8=
EXTT9=
EXTT10=
EXTT11=
EXTT12=
EXTT13=
EXTT14=
EXTT15=
PLAYORDER=
